<?xml version="1.0" encoding="UTF-8" standalone="no"?>
<!-- Created with Inkscape (http://www.inkscape.org/) -->

<svg
   xmlns:dc="http://purl.org/dc/elements/1.1/"
   xmlns:cc="http://creativecommons.org/ns#"
   xmlns:rdf="http://www.w3.org/1999/02/22-rdf-syntax-ns#"
   xmlns:svg="http://www.w3.org/2000/svg"
   xmlns="http://www.w3.org/2000/svg"
   xmlns:sodipodi="http://sodipodi.sourceforge.net/DTD/sodipodi-0.dtd"
   xmlns:inkscape="http://www.inkscape.org/namespaces/inkscape"
   width="18"
   height="17.999983"
   id="svg5184"
   version="1.1"
   inkscape:version="0.48+devel r12836 custom"
   viewBox="0 0 17.999999 17.999983"
   sodipodi:docname="cog.svg">
  <defs
     id="defs5186" />
  <sodipodi:namedview
     id="base"
     pagecolor="#ffffff"
     bordercolor="#666666"
     borderopacity="1.0"
     inkscape:pageopacity="0.0"
     inkscape:pageshadow="2"
     inkscape:zoom="11.2"
     inkscape:cx="35.519145"
     inkscape:cy="24.792561"
     inkscape:document-units="px"
     inkscape:current-layer="layer1"
     showgrid="true"
     inkscape:snap-bbox="true"
     inkscape:bbox-nodes="true"
     inkscape:snap-bbox-midpoints="true"
     inkscape:snap-bbox-edge-midpoints="true"
     inkscape:bbox-paths="true"
     inkscape:object-paths="true"
     inkscape:snap-intersection-paths="true"
     inkscape:snap-smooth-nodes="true"
     inkscape:object-nodes="true"
     fit-margin-top="0"
     fit-margin-left="0"
     fit-margin-right="0"
     fit-margin-bottom="0"
     inkscape:window-width="1366"
     inkscape:window-height="702"
     inkscape:window-x="0"
     inkscape:window-y="27"
     inkscape:window-maximized="1">
    <inkscape:grid
       type="xygrid"
       id="grid5200"
       originx="-302px"
       originy="-908.00003px" />
  </sodipodi:namedview>
  <metadata
     id="metadata5189">
    <rdf:RDF>
      <cc:Work
         rdf:about="">
        <dc:format>image/svg+xml</dc:format>
        <dc:type
           rdf:resource="http://purl.org/dc/dcmitype/StillImage" />
        <dc:title></dc:title>
      </cc:Work>
    </rdf:RDF>
  </metadata>
  <g
     inkscape:label="Ebene 1"
     inkscape:groupmode="layer"
     id="layer1"
     transform="translate(-302,-126.36217)">
    <rect
       style="fill:#999999;fill-opacity:1;stroke:none"
       id="rect5202"
       width="18"
       height="17.999983"
       x="302"
       y="156.36217" />
    <path
       inkscape:export-ydpi="70"
       inkscape:export-xdpi="70"
       inkscape:export-filename="/home/tobi/Ubuntu One/efficiam/webapps.png"
       id="path5312"
       d="m 310.57175,127.3588 c -0.16865,0.0116 -0.31316,0.0368 -0.4551,0.0538 -0.01,8.4e-4 -0.0244,-8.4e-4 -0.0338,0 l -0.23996,0 -0.044,0.26428 -0.3475,1.91357 c -0.49915,0.13337 -0.97446,0.32714 -1.41439,0.57749 l -1.57089,-1.13052 -0.19579,-0.14192 -0.18604,0.14192 c -0.48283,0.37473 -0.91336,0.81192 -1.29688,1.28223 l -0.15178,0.18597 0.1322,0.18597 1.07672,1.58078 c -0.28723,0.47724 -0.50356,1.00588 -0.65093,1.55627 l -1.87443,0.29365 -0.23977,0.0343 -0.0345,0.2398 c -0.04,0.32385 -0.0541,0.64878 -0.0541,0.9788 0,0.26691 0.009,0.53804 0.0345,0.80752 l 0.0345,0.22512 0.22506,0.044 1.88412,0.33769 c 0.14648,0.60246 0.3723,1.17134 0.68533,1.68845 l -1.10613,1.52694 -0.14187,0.19575 0.15178,0.18107 c 0.36782,0.45695 0.78304,0.86895 1.23817,1.2333 l 0.18584,0.15172 0.18604,-0.13214 1.60042,-1.09626 c 0.52949,0.31123 1.10535,0.53844 1.72266,0.67536 l 0.29352,1.86953 0.0345,0.23979 0.23975,0.0245 c 0.25092,0.0228 0.50083,0.0196 0.73907,0.0196 0.34346,-2e-5 0.68059,-0.01 1.02281,-0.0538 l 0.2203,-0.0343 0.0393,-0.22512 0.36214,-1.91847 c 0.58449,-0.16677 1.13571,-0.42857 1.63464,-0.75368 l 1.51222,1.10114 0.1958,0.15173 0.19574,-0.16149 c 0.45335,-0.38575 0.86132,-0.83144 1.21857,-1.30672 l 0.13215,-0.17618 -0.11743,-0.18107 -1.12568,-1.62481 c 0.26103,-0.48932 0.45038,-1.00931 0.5678,-1.56608 l 1.86463,-0.29855 0.23974,-0.0293 0.0197,-0.24961 c 0.019,-0.22804 0.0196,-0.4426 0.0196,-0.66559 0,-0.40557 -0.0534,-0.79249 -0.10755,-1.16475 l -0.0292,-0.23003 -0.22015,-0.0343 -1.92838,-0.34746 c -0.15272,-0.49048 -0.36725,-0.9447 -0.63126,-1.37034 l 1.12064,-1.53671 0.1419,-0.19576 -0.15156,-0.18597 c -0.3956,-0.48369 -0.84977,-0.9341 -1.35081,-1.31648 l -0.17127,-0.14194 -0.18591,0.13215 -1.64437,1.13051 c -0.41691,-0.2286 -0.86717,-0.40823 -1.34105,-0.53344 l -0.29363,-1.89399 -0.0345,-0.2398 -0.23975,-0.0343 c -0.30823,-0.0363 -0.61482,-0.0538 -0.93484,-0.0538 -0.0764,0 -0.16848,-0.003 -0.26418,0 -0.0141,0 -0.0562,-0.004 -0.12732,0 0.0277,-8.4e-4 0.0171,-0.003 -0.0345,0 z m 0.2644,4.87445 c 0.0534,-0.003 0.10742,0 0.16145,0 1.73018,0 3.13218,1.40199 3.13218,3.13216 0,1.73014 -1.402,3.13216 -3.13218,3.13216 -1.73004,0 -3.13216,-1.40202 -3.13216,-3.13216 0,-1.67609 1.3155,-3.04827 2.97071,-3.13216 z"
       style="font-style:normal;font-variant:normal;font-weight:normal;font-stretch:normal;text-indent:0;text-align:start;text-decoration:none;line-height:normal;letter-spacing:normal;word-spacing:normal;text-transform:none;direction:ltr;block-progression:tb;writing-mode:lr-tb;text-anchor:start;baseline-shift:baseline;color:#000000;fill:#ffffff;stroke:none;stroke-width:5;marker:none;visibility:visible;display:inline;overflow:visible;enable-background:accumulate;font-family:Sans;-inkscape-font-specification:Sans"
       inkscape:connector-curvature="0" />
  </g>
</svg>
